<svg xmlns="http://www.w3.org/2000/svg" xmlns:xlink="http://www.w3.org/1999/xlink" width="500" zoomAndPan="magnify" viewBox="0 0 375 374.999991" height="500" preserveAspectRatio="xMidYMid meet" version="1.0"><defs><g/><clipPath id="9a5a1efc50"><path d="M 65.652344 167.34375 L 309.402344 167.34375 L 309.402344 207.84375 L 65.652344 207.84375 Z M 65.652344 167.34375 " clip-rule="nonzero"/></clipPath></defs><rect x="-37.5" width="450" fill="#ffffff" y="-37.499999" height="449.999989" fill-opacity="1"/><rect x="-37.5" width="450" fill="#ffffff" y="-37.499999" height="449.999989" fill-opacity="1"/><rect x="-37.5" width="450" fill="#ffffff" y="-37.499999" height="449.999989" fill-opacity="1"/><g fill="#000000" fill-opacity="1"><g transform="translate(100.522293, 253.874983)"><g><path d="M 38.085938 -53.515625 L 25.78125 -131.929688 C 25.488281 -134.175781 23.828125 -135.152344 21.875 -135.152344 L 2.246094 -135.152344 C 0.488281 -135.152344 -0.0976562 -133.6875 0.390625 -131.34375 L 27.539062 -3.417969 C 28.125 -1.074219 29.296875 0 31.347656 0 L 46.875 0 C 48.828125 0 50 -1.074219 50.585938 -3.417969 L 77.734375 -131.539062 C 78.21875 -133.6875 77.734375 -135.152344 75.878906 -135.152344 L 56.25 -135.152344 C 54.394531 -135.152344 52.636719 -134.175781 52.34375 -131.929688 L 40.136719 -53.515625 L 39.0625 -42.089844 Z M 38.085938 -53.515625 "/></g></g></g><g fill="#000000" fill-opacity="1"><g transform="translate(188.743, 253.874983)"><g><path d="M 63.476562 -67.871094 C 73.828125 -76.464844 79.878906 -89.253906 79.878906 -105.855469 L 79.878906 -130.953125 C 79.878906 -132.710938 79 -135.152344 76.367188 -135.152344 L 58.300781 -135.152344 C 56.054688 -135.152344 53.808594 -133.589844 53.808594 -130.660156 L 53.808594 -108.785156 C 53.808594 -92.28125 49.121094 -80.855469 33.007812 -79.488281 L 33.007812 -131.34375 C 33.007812 -133.6875 32.03125 -135.152344 29.785156 -135.152344 L 10.351562 -135.152344 C 8.203125 -135.152344 7.03125 -133.6875 7.03125 -131.34375 L 7.03125 -3.710938 C 7.03125 -1.367188 8.105469 0 10.351562 0 L 29.882812 0 C 32.128906 0 33.007812 -1.367188 33.007812 -3.710938 L 33.007812 -54.980469 C 50.195312 -54.199219 55.175781 -42.578125 55.175781 -25.683594 L 55.175781 -4.394531 C 55.175781 -1.464844 57.324219 0 59.570312 0 L 77.734375 0 C 80.269531 0 81.246094 -2.34375 81.246094 -4.101562 L 81.246094 -28.710938 C 81.246094 -45.996094 74.707031 -59.277344 63.476562 -67.871094 Z M 63.476562 -67.871094 "/></g></g></g><g clip-path="url(#9a5a1efc50)"><path fill="#ffffff" d="M 65.65625 167.34375 L 309.398438 167.34375 L 309.398438 207.84375 L 65.65625 207.84375 L 65.65625 167.34375 " fill-opacity="1" fill-rule="nonzero"/></g><g fill="#000000" fill-opacity="1"><g transform="translate(119.538476, 193.874987)"><g><path d="M 3.425781 -4.8125 L 2.320312 -11.867188 C 2.292969 -12.070312 2.144531 -12.160156 1.96875 -12.160156 L 0.203125 -12.160156 C 0.0429688 -12.160156 -0.0078125 -12.027344 0.0351562 -11.816406 L 2.476562 -0.308594 C 2.53125 -0.0976562 2.636719 0 2.820312 0 L 4.21875 0 C 4.394531 0 4.5 -0.0976562 4.550781 -0.308594 L 6.992188 -11.832031 C 7.035156 -12.027344 6.992188 -12.160156 6.828125 -12.160156 L 5.058594 -12.160156 C 4.894531 -12.160156 4.734375 -12.070312 4.707031 -11.867188 L 3.609375 -4.8125 L 3.515625 -3.785156 Z M 3.425781 -4.8125 "/></g></g></g><g fill="#000000" fill-opacity="1"><g transform="translate(135.843898, 193.874987)"><g><path d="M 2.898438 -9.171875 C 2.898438 -9.726562 3.242188 -10.226562 3.839844 -10.226562 C 4.429688 -10.226562 4.769531 -9.726562 4.769531 -9.171875 L 4.769531 -4.945312 L 2.898438 -4.945312 Z M 7.117188 -9.304688 C 7.117188 -10.992188 5.585938 -12.351562 3.832031 -12.351562 C 2.074219 -12.351562 0.554688 -10.992188 0.554688 -9.304688 L 0.554688 -0.34375 C 0.554688 -0.15625 0.648438 0 0.78125 0 L 2.636719 0 C 2.847656 0 2.898438 -0.148438 2.898438 -0.34375 L 2.898438 -2.898438 L 4.769531 -2.898438 L 4.769531 -0.351562 C 4.769531 -0.167969 4.875 0 5.050781 0 L 6.835938 0 C 7.035156 0 7.117188 -0.175781 7.117188 -0.351562 Z M 7.117188 -9.304688 "/></g></g></g><g fill="#000000" fill-opacity="1"><g transform="translate(152.781721, 193.874987)"><g><path d="M 2.96875 -10.023438 L 3.839844 -10.023438 C 4.4375 -10.023438 4.847656 -9.679688 4.847656 -8.945312 L 4.847656 -3.1875 C 4.847656 -2.589844 4.472656 -2.136719 3.882812 -2.117188 L 2.96875 -2.117188 Z M 0.632812 -0.332031 C 0.632812 -0.121094 0.730469 0 0.929688 0 L 3.996094 0 C 5.789062 -0.015625 7.1875 -1.097656 7.1875 -3.117188 L 7.1875 -9.039062 C 7.1875 -11.050781 5.796875 -12.140625 3.980469 -12.160156 L 0.929688 -12.160156 C 0.746094 -12.160156 0.632812 -12.027344 0.632812 -11.816406 Z M 0.632812 -0.332031 "/></g></g></g><g fill="#000000" fill-opacity="1"><g transform="translate(169.675623, 193.874987)"><g><path d="M 4.8125 -4.882812 C 6.027344 -5.28125 6.933594 -6.289062 6.933594 -7.757812 L 6.933594 -11.964844 C 6.933594 -12.089844 6.863281 -12.160156 6.746094 -12.160156 L 4.777344 -12.160156 C 4.648438 -12.160156 4.585938 -12.070312 4.585938 -11.957031 L 4.585938 -7.828125 C 4.585938 -7.273438 4.253906 -6.828125 3.644531 -6.828125 C 3.039062 -6.828125 2.714844 -7.328125 2.714844 -7.878906 L 2.714844 -11.972656 C 2.714844 -12.070312 2.636719 -12.160156 2.496094 -12.160156 L 0.5625 -12.160156 C 0.429688 -12.160156 0.378906 -12.070312 0.378906 -11.957031 L 0.367188 -7.757812 C 0.367188 -6.324219 1.265625 -5.296875 2.476562 -4.894531 L 2.476562 -0.34375 C 2.476562 -0.121094 2.554688 0 2.742188 0 L 4.558594 0 C 4.742188 0 4.8125 -0.121094 4.8125 -0.34375 Z M 4.8125 -4.882812 "/></g></g></g><g fill="#000000" fill-opacity="1"><g transform="translate(186.244543, 193.874987)"><g><path d="M 8.996094 -0.351562 C 8.996094 -0.167969 9.09375 0 9.277344 0 L 11.0625 0 C 11.253906 0 11.332031 -0.175781 11.332031 -0.351562 L 11.332031 -9.304688 C 11.332031 -10.992188 9.804688 -12.351562 8.046875 -12.351562 C 7.257812 -12.351562 6.511719 -12.078125 5.9375 -11.625 C 5.359375 -12.078125 4.613281 -12.351562 3.832031 -12.351562 C 2.074219 -12.351562 0.554688 -10.992188 0.554688 -9.304688 L 0.554688 -0.34375 C 0.554688 -0.15625 0.660156 0 0.78125 0 L 2.636719 0 C 2.847656 0 2.898438 -0.148438 2.898438 -0.34375 L 2.898438 -9.171875 C 2.898438 -9.726562 3.242188 -10.226562 3.839844 -10.226562 C 4.429688 -10.226562 4.769531 -9.726562 4.769531 -9.171875 L 4.769531 -0.34375 C 4.769531 -0.15625 4.882812 0 5.007812 0 L 6.863281 0 C 7.070312 0 7.117188 -0.148438 7.117188 -0.332031 L 7.117188 -9.207031 C 7.132812 -9.742188 7.476562 -10.226562 8.054688 -10.226562 C 8.644531 -10.226562 8.996094 -9.726562 8.996094 -9.171875 Z M 8.996094 -0.351562 "/></g></g></g><g fill="#000000" fill-opacity="1"><g transform="translate(207.398368, 193.874987)"><g/></g></g><g fill="#000000" fill-opacity="1"><g transform="translate(220.743803, 193.874987)"><g><path d="M 5.710938 -6.105469 C 6.640625 -6.878906 7.1875 -8.03125 7.1875 -9.523438 L 7.1875 -11.78125 C 7.1875 -11.9375 7.105469 -12.160156 6.871094 -12.160156 L 5.246094 -12.160156 C 5.042969 -12.160156 4.839844 -12.019531 4.839844 -11.753906 L 4.839844 -9.785156 C 4.839844 -8.300781 4.417969 -7.273438 2.96875 -7.152344 L 2.96875 -11.816406 C 2.96875 -12.027344 2.882812 -12.160156 2.679688 -12.160156 L 0.929688 -12.160156 C 0.738281 -12.160156 0.632812 -12.027344 0.632812 -11.816406 L 0.632812 -0.332031 C 0.632812 -0.121094 0.730469 0 0.929688 0 L 2.6875 0 C 2.890625 0 2.96875 -0.121094 2.96875 -0.332031 L 2.96875 -4.945312 C 4.515625 -4.875 4.964844 -3.832031 4.964844 -2.3125 L 4.964844 -0.394531 C 4.964844 -0.132812 5.15625 0 5.359375 0 L 6.992188 0 C 7.222656 0 7.308594 -0.210938 7.308594 -0.367188 L 7.308594 -2.582031 C 7.308594 -4.136719 6.722656 -5.332031 5.710938 -6.105469 Z M 5.710938 -6.105469 "/></g></g></g><g fill="#000000" fill-opacity="1"><g transform="translate(237.725541, 193.874987)"><g><path d="M 2.96875 -11.816406 C 2.96875 -12.027344 2.882812 -12.160156 2.679688 -12.160156 L 0.921875 -12.160156 C 0.738281 -12.160156 0.632812 -12.027344 0.632812 -11.816406 L 0.632812 -0.332031 C 0.632812 -0.121094 0.71875 0 0.921875 0 L 2.679688 0 C 2.882812 0 2.96875 -0.121094 2.96875 -0.332031 Z M 2.96875 -11.816406 "/></g></g></g><g fill="#000000" fill-opacity="1"><g transform="translate(250.605465, 193.874987)"><g><path d="M 2.644531 -2.1875 L 2.8125 -2.496094 L 5.9375 -10.5 C 5.957031 -10.535156 5.972656 -10.621094 5.972656 -10.699219 L 5.972656 -11.859375 C 5.972656 -12.0625 5.914062 -12.160156 5.726562 -12.160156 L 0.570312 -12.160156 C 0.4375 -12.160156 0.351562 -12.0625 0.351562 -11.867188 L 0.351562 -10.382812 C 0.351562 -10.191406 0.429688 -10.09375 0.570312 -10.09375 L 3.460938 -10.09375 L 3.328125 -9.820312 L 0.289062 -1.75 C 0.253906 -1.679688 0.226562 -1.609375 0.21875 -1.503906 L 0.21875 -0.28125 C 0.21875 -0.0859375 0.308594 0 0.449219 0 L 5.894531 0 C 6.027344 0 6.105469 -0.0859375 6.105469 -0.28125 L 6.105469 -1.914062 C 6.105469 -2.101562 6.027344 -2.1875 5.894531 -2.1875 Z M 2.644531 -2.1875 "/></g></g></g><path stroke-linecap="butt" transform="matrix(1.500563, 0, 0, 1.5, 93.783896, 168.092773)" fill="none" stroke-linejoin="miter" d="M 0.000839891 0.000651359 L 124.953974 0.000651359 " stroke="#000000" stroke-width="1" stroke-opacity="1" stroke-miterlimit="4"/><path stroke-linecap="butt" transform="matrix(1.500563, 0, 0, 1.5, 93.783896, 206.907217)" fill="none" stroke-linejoin="miter" d="M 0.000839891 -0.000644542 L 124.953974 -0.000644542 " stroke="#000000" stroke-width="1" stroke-opacity="1" stroke-miterlimit="4"/></svg>